<svg width="16" height="16" viewBox="0 0 16 16" fill="none" xmlns="http://www.w3.org/2000/svg">
<g opacity="0.6">
<path fill-rule="evenodd" clip-rule="evenodd" d="M13.1313 4.92298C12.81 4.65515 12.3596 4.43714 11.8124 4.26388C11.5149 4.17076 11.2868 3.92892 11.1872 3.63366C10.8573 2.65693 9.94119 2 8.9096 2H7.08896C6.05809 2 5.14199 2.65693 4.81208 3.63366C4.71246 3.92892 4.48362 4.17076 4.18692 4.26388C3.64044 4.43714 3.18925 4.65515 2.868 4.92298C1.9613 5.67953 1.5 6.9316 1.5 8.67427C1.5 10.4169 1.9613 12.1957 2.868 12.9523C3.77543 13.7081 5.67403 14.0929 8 14.0929C10.3252 14.0929 12.2238 13.7081 13.1313 12.9523C14.0387 12.1957 14.5 10.4169 14.5 8.67427C14.5 6.9316 14.0387 5.67953 13.1313 4.92298Z" fill="#62758F" stroke="#62758F" stroke-width="1.21875"/>
<path fill-rule="evenodd" clip-rule="evenodd" d="M10.6325 8.75482C10.666 7.3011 9.51456 6.09441 8.06 6.06175C6.60627 6.02825 5.39958 7.17968 5.36692 8.6334C5.33343 10.0871 6.48401 11.293 7.93774 11.3273C9.3923 11.3608 10.5982 10.2094 10.6325 8.75482Z" stroke="white" stroke-width="1.21875" stroke-linecap="round" stroke-linejoin="round"/>
<path d="M11.6058 6.09146L11.5943 6.07926" stroke="white" stroke-width="1.21875" stroke-linecap="round" stroke-linejoin="round"/>
</g>
</svg>
