<svg width="24" height="24" viewBox="0 0 24 24" fill="none" xmlns="http://www.w3.org/2000/svg"><path d="M16.1342 5.08031C17.6256 4.73769 18.7983 3.61543 19.1482 2.1708L19.1916 2.32419L19.6727 2.1881L19.1916 2.32419C19.5769 3.6866 20.6944 4.73165 22.1003 5.0798L21.8867 5.14458C21.8867 5.14458 21.8867 5.14459 21.8866 5.14459C20.6002 5.53463 19.59 6.51503 19.2079 7.77234L19.1482 7.96867C18.8033 6.58718 17.7034 5.50034 16.2864 5.12104C16.2864 5.12103 16.2864 5.12103 16.2864 5.12103L16.1342 5.08031Z" fill="#18191A" stroke="#18191A"></path><path d="M9.94717 8.49182L10.1942 7.18153L10.7297 9.07467L11.1324 8.96078L10.7297 9.07467C11.3853 11.3923 13.2957 13.1778 15.7099 13.7635L17.1002 14.1008L15.3121 14.643C15.3121 14.643 15.3121 14.643 15.312 14.643C13.118 15.3083 11.404 16.9772 10.7569 19.1065L10.1934 20.961L9.94214 19.721C9.44157 17.2502 7.52521 15.277 5.01204 14.6043C5.01203 14.6043 5.01202 14.6043 5.01201 14.6043L3.13523 14.1018L4.64728 13.778C4.64729 13.778 4.64729 13.778 4.6473 13.778C7.35301 13.1986 9.45068 11.1246 9.94717 8.49182Z" fill="#18191A" stroke="#18191A"></path></svg>