<svg width="40" height="40" viewBox="0 0 40 40" fill="none" xmlns="http://www.w3.org/2000/svg">
<g clip-path="url(#clip0_0_1100)">
<path d="M35 0H5C2.23858 0 0 2.23858 0 5V35C0 37.7614 2.23858 40 5 40H35C37.7614 40 40 37.7614 40 35V5C40 2.23858 37.7614 0 35 0Z" fill="#18191A"/>
<path d="M9.84 18.42V7.03999H13.57C14.98 7.03999 16.08 7.29999 16.87 7.82999C17.66 8.35999 18.05 9.12999 18.05 10.17C18.05 10.71 17.93 11.19 17.67 11.61C17.42 12.03 17.03 12.35 16.5 12.56C17.18 12.71 17.68 13.01 18 13.47C18.33 13.93 18.49 14.46 18.49 15.06C18.49 16.17 18.12 17.01 17.37 17.58C16.62 18.15 15.56 18.43 14.17 18.43H9.83L9.84 18.42ZM12.48 11.79H13.52C14.16 11.79 14.63 11.68 14.94 11.46C15.25 11.24 15.41 10.91 15.41 10.47C15.41 9.98999 15.26 9.62999 14.96 9.40999C14.66 9.18999 14.19 9.07999 13.57 9.07999H12.48V11.79ZM12.48 13.54V16.39H14.18C14.74 16.39 15.16 16.28 15.45 16.06C15.73 15.84 15.87 15.5 15.87 15.04C15.87 14.56 15.75 14.19 15.5 13.94C15.25 13.69 14.84 13.56 14.28 13.54H12.49H12.48Z" fill="white"/>
<path d="M19.16 21.42V28.8C19.16 30.1 18.73 31.12 17.86 31.86C17 32.6 15.87 32.97 14.48 32.97C13.09 32.97 11.94 32.6 11.07 31.86C10.2 31.12 9.77 30.1 9.77 28.8V21.42H12.42V28.8C12.42 29.5 12.6 30.03 12.97 30.39C13.34 30.75 13.84 30.93 14.49 30.93C15.14 30.93 15.63 30.75 15.99 30.39C16.35 30.03 16.53 29.5 16.53 28.79V21.41H19.18L19.16 21.42Z" fill="white"/>
<path d="M25.06 25.25L26.94 21.41H29.99L26.73 27.05L30.24 32.78H27.04L25.1 28.87L23.16 32.78H20.11L23.45 27.05L20.19 21.41H23.21L25.05 25.25H25.06Z" fill="white"/>
<path d="M23.0005 18.4299C24.105 18.4299 25.0005 17.5345 25.0005 16.4299C25.0005 15.3254 24.105 14.4299 23.0005 14.4299C21.8959 14.4299 21.0005 15.3254 21.0005 16.4299C21.0005 17.5345 21.8959 18.4299 23.0005 18.4299Z" fill="white"/>
</g>
<defs>
<clipPath id="clip0_0_1100">
<rect width="40" height="40" fill="white"/>
</clipPath>
</defs>
</svg>
