<svg id="65c31811a217e860d3c5b408" width="48" height="48" viewBox="0 0 46 46" fill="none" xmlns="http://www.w3.org/2000/svg"><circle cx="23" cy="13.417" r="10.2222" fill="#3D79D6" stroke="white" stroke-width="2.55556"></circle><path d="M14.4299 15.9722H31.5601C31.5601 15.9722 31.3605 17.5295 27.1488 23.88C22.9372 30.2306 23.2945 34.0607 22.995 39.2117C22.7155 34.0208 22.097 28.4337 18.8125 23.88C15.528 19.3263 14.4299 15.9722 14.4299 15.9722Z" fill="#3D79D6"></path><circle cx="23.0004" cy="42.3643" r="3.6357" transform="rotate(-180 23.0004 42.3643)" fill="#3D79D6"></circle><path d="M26.5164 41.3159L19.4906 41.3159C19.4906 41.3159 19.5725 40.6772 21.2998 38.0726C23.0272 35.468 22.8807 33.8971 23.0035 31.7845C23.1181 33.9135 23.3718 36.205 24.7189 38.0726C26.066 39.9402 26.5164 41.3159 26.5164 41.3159Z" fill="#3D79D6"></path></svg>