<svg id="65c31811a217e860d3c5b406" class="mppr_dot" width="32" height="32" viewBox="0 0 36 36" fill="none" xmlns="http://www.w3.org/2000/svg"><circle cx="18" cy="10.5" r="8" fill="#1CBBBB" stroke="white" stroke-width="2"></circle><path d="M11.293 12.5H24.6992C24.6992 12.5 24.543 13.7188 21.2469 18.6888C17.9508 23.6588 18.2305 26.6562 17.9961 30.6875C17.7773 26.625 17.2933 22.2525 14.7228 18.6888C12.1523 15.125 11.293 12.5 11.293 12.5Z" fill="#1CBBBB"></path><circle cx="18.0004" cy="33.1547" r="2.84533" transform="rotate(-180 18.0004 33.1547)" fill="#1CBBBB"></circle><path d="M20.752 32.334L15.2535 32.334C15.2535 32.334 15.3176 31.8341 16.6695 29.7957C18.0213 27.7574 17.9066 26.528 18.0027 24.8746C18.0925 26.5408 18.291 28.3341 19.3452 29.7957C20.3995 31.2574 20.752 32.334 20.752 32.334Z" fill="#1CBBBB"></path></svg>