<svg width="90" height="90" viewBox="0 0 70 70" fill="none" xmlns="http://www.w3.org/2000/svg"><rect opacity="0.2" width="70" height="70" rx="35" fill="#1CBBBB"></rect><path d="M40.0832 28.6668C40.0832 31.4743 37.8073 33.7502 34.9998 33.7502V36.2502C39.188 36.2502 42.5832 32.855 42.5832 28.6668H40.0832ZM34.9998 33.7502C32.1924 33.7502 29.9165 31.4743 29.9165 28.6668H27.4165C27.4165 32.855 30.8117 36.2502 34.9998 36.2502V33.7502ZM29.9165 28.6668C29.9165 25.8594 32.1924 23.5835 34.9998 23.5835V21.0835C30.8117 21.0835 27.4165 24.4787 27.4165 28.6668H29.9165ZM34.9998 23.5835C37.8073 23.5835 40.0832 25.8594 40.0832 28.6668H42.5832C42.5832 24.4787 39.188 21.0835 34.9998 21.0835V23.5835ZM30.2498 41.0002H39.7498V38.5002H30.2498V41.0002ZM39.7498 41.0002C42.5573 41.0002 44.8332 43.2761 44.8332 46.0835H47.3332C47.3332 41.8953 43.938 38.5002 39.7498 38.5002V41.0002ZM30.2498 38.5002C26.0617 38.5002 22.6665 41.8953 22.6665 46.0835H25.1665C25.1665 43.2761 27.4424 41.0002 30.2498 41.0002V38.5002Z" fill="#1CBBBB"></path></svg>